P2
# Created by GIMP version 2.10.24 PNM plug-in
8 8
255
214
191
217
210
212
223
207
199
163
152
198
208
204
218
205
207
138
94
148
193
168
167
201
222
196
146
96
112
95
87
136
210
168
169
114
67
95
99
80
141
157
130
101
113
183
162
91
86
180
160
142
148
201
199
162
103
211
186
161
168
209
213
205
183
